<svg xmlns="http://www.w3.org/2000/svg" width="2417" height="806">
<image xlink:href="file:///C:/Users/24968/Documents/My Games/Tabletop Simulator/Mods/Images/httpssteamusercontentaakamaihdnetugc1499019986201207302415DCABABA4B7EF61F6744BF68F89B7A3A5D88514.png" x="0" y="0" width="2417" height="806" opacity="0.55"/>
<line x1="47" y1="57.5" x2="177" y2="169" stroke="cyan" stroke-width="1"/>
<line x1="47" y1="57.5" x2="66.5" y2="264.5" stroke="cyan" stroke-width="1"/>
<line x1="47" y1="57.5" x2="274" y2="111.5" stroke="cyan" stroke-width="1"/>
<line x1="274" y1="111.5" x2="177" y2="169" stroke="cyan" stroke-width="1"/>
<line x1="274" y1="111.5" x2="271.5" y2="252" stroke="cyan" stroke-width="1"/>
<line x1="274" y1="111.5" x2="452" y2="115.5" stroke="cyan" stroke-width="1"/>
<line x1="66.5" y1="264.5" x2="177" y2="169" stroke="cyan" stroke-width="1"/>
<line x1="66.5" y1="264.5" x2="271.5" y2="252" stroke="cyan" stroke-width="1"/>
<line x1="452" y1="115.5" x2="477.5" y2="52.5" stroke="cyan" stroke-width="1"/>
<line x1="452" y1="115.5" x2="516" y2="90" stroke="cyan" stroke-width="1"/>
<line x1="452" y1="115.5" x2="523" y2="180" stroke="cyan" stroke-width="1"/>
<line x1="477.5" y1="52.5" x2="516" y2="90" stroke="cyan" stroke-width="1"/>
<line x1="477.5" y1="52.5" x2="523" y2="180" stroke="cyan" stroke-width="1"/>
<line x1="523" y1="180" x2="485" y2="253.5" stroke="cyan" stroke-width="1"/>
<line x1="523" y1="180" x2="516" y2="90" stroke="cyan" stroke-width="1"/>
<line x1="271.5" y1="252" x2="177" y2="169" stroke="cyan" stroke-width="1"/>
<line x1="271.5" y1="252" x2="414.5" y2="293" stroke="cyan" stroke-width="1"/>
<line x1="623.5" y1="90.5" x2="639" y2="145" stroke="cyan" stroke-width="1"/>
<line x1="623.5" y1="90.5" x2="516" y2="90" stroke="cyan" stroke-width="1"/>
<line x1="814" y1="255.5" x2="693.5" y2="291" stroke="cyan" stroke-width="1"/>
<line x1="814" y1="255.5" x2="903.5" y2="408.5" stroke="cyan" stroke-width="1"/>
<line x1="814" y1="255.5" x2="640" y2="352.5" stroke="cyan" stroke-width="1"/>
<line x1="693.5" y1="291" x2="640" y2="352.5" stroke="cyan" stroke-width="1"/>
<line x1="693.5" y1="291" x2="575" y2="275" stroke="cyan" stroke-width="1"/>
<line x1="485" y1="253.5" x2="414.5" y2="293" stroke="cyan" stroke-width="1"/>
<line x1="485" y1="253.5" x2="575" y2="275" stroke="cyan" stroke-width="1"/>
<line x1="414.5" y1="293" x2="380" y2="367.5" stroke="cyan" stroke-width="1"/>
<line x1="575" y1="275" x2="640" y2="352.5" stroke="cyan" stroke-width="1"/>
<line x1="380" y1="367.5" x2="350" y2="500" stroke="cyan" stroke-width="1"/>
<line x1="993" y1="92" x2="1109.5" y2="248" stroke="cyan" stroke-width="1"/>
<line x1="993" y1="92" x2="1054.5" y2="346" stroke="cyan" stroke-width="1"/>
<line x1="1054.5" y1="346" x2="1109.5" y2="248" stroke="cyan" stroke-width="1"/>
<line x1="1054.5" y1="346" x2="1087" y2="463.5" stroke="cyan" stroke-width="1"/>
<line x1="1054.5" y1="346" x2="1174.5" y2="393.5" stroke="cyan" stroke-width="1"/>
<line x1="1109.5" y1="248" x2="1255.5" y2="266" stroke="cyan" stroke-width="1"/>
<line x1="1109.5" y1="248" x2="1174.5" y2="393.5" stroke="cyan" stroke-width="1"/>
<line x1="1255.5" y1="266" x2="1174.5" y2="393.5" stroke="cyan" stroke-width="1"/>
<line x1="1255.5" y1="266" x2="1280.5" y2="415" stroke="cyan" stroke-width="1"/>
<line x1="1174.5" y1="393.5" x2="1280.5" y2="415" stroke="cyan" stroke-width="1"/>
<line x1="1174.5" y1="393.5" x2="1087" y2="463.5" stroke="cyan" stroke-width="1"/>
<line x1="1294" y1="536.5" x2="1247" y2="581.5" stroke="cyan" stroke-width="1"/>
<line x1="1294" y1="536.5" x2="1218" y2="622" stroke="cyan" stroke-width="1"/>
<line x1="1294" y1="536.5" x2="1415.5" y2="547.5" stroke="cyan" stroke-width="1"/>
<line x1="1379" y1="67" x2="1677" y2="143.5" stroke="cyan" stroke-width="1"/>
<line x1="1375" y1="729" x2="1378" y2="697" stroke="cyan" stroke-width="1"/>
<line x1="1375" y1="729" x2="1519" y2="692" stroke="cyan" stroke-width="1"/>
<line x1="1375" y1="729" x2="1419.5" y2="578" stroke="cyan" stroke-width="1"/>
<line x1="1415.5" y1="547.5" x2="1419.5" y2="578" stroke="cyan" stroke-width="1"/>
<line x1="1415.5" y1="547.5" x2="1529" y2="473" stroke="cyan" stroke-width="1"/>
<line x1="1741" y1="29" x2="1677" y2="143.5" stroke="cyan" stroke-width="1"/>
<line x1="1741" y1="29" x2="2045" y2="84.5" stroke="cyan" stroke-width="1"/>
<line x1="1741" y1="29" x2="2007.5" y2="221" stroke="cyan" stroke-width="1"/>
<line x1="2045" y1="84.5" x2="2007.5" y2="221" stroke="cyan" stroke-width="1"/>
<line x1="2045" y1="84.5" x2="2245" y2="244" stroke="cyan" stroke-width="1"/>
<line x1="2007.5" y1="221" x2="2245" y2="244" stroke="cyan" stroke-width="1"/>
<line x1="2007.5" y1="221" x2="1768" y2="431" stroke="cyan" stroke-width="1"/>
<line x1="1677" y1="143.5" x2="1768" y2="431" stroke="cyan" stroke-width="1"/>
<line x1="1547.5" y1="678.5" x2="1519" y2="692" stroke="cyan" stroke-width="1"/>
<line x1="1547.5" y1="678.5" x2="1419.5" y2="578" stroke="cyan" stroke-width="1"/>
<line x1="1547.5" y1="678.5" x2="1378" y2="697" stroke="cyan" stroke-width="1"/>
<line x1="1768" y1="431" x2="1529" y2="473" stroke="cyan" stroke-width="1"/>
<line x1="1529" y1="473" x2="1419.5" y2="578" stroke="cyan" stroke-width="1"/>
<line x1="2229.5" y1="537" x2="2099.5" y2="527" stroke="cyan" stroke-width="1"/>
<line x1="2229.5" y1="537" x2="2035.5" y2="658" stroke="cyan" stroke-width="1"/>
<line x1="2229.5" y1="537" x2="2245" y2="244" stroke="cyan" stroke-width="1"/>
<line x1="2035.5" y1="658" x2="2099.5" y2="527" stroke="cyan" stroke-width="1"/>
<line x1="176.5" y1="624" x2="341.5" y2="540.5" stroke="cyan" stroke-width="1"/>
<line x1="176.5" y1="624" x2="350" y2="500" stroke="cyan" stroke-width="1"/>
<line x1="350" y1="500" x2="341.5" y2="540.5" stroke="cyan" stroke-width="1"/>
<line x1="350" y1="500" x2="529" y2="530" stroke="cyan" stroke-width="1"/>
<line x1="529" y1="530" x2="698.5" y2="536.5" stroke="cyan" stroke-width="1"/>
<line x1="529" y1="530" x2="583.5" y2="695" stroke="cyan" stroke-width="1"/>
<line x1="583.5" y1="695" x2="698.5" y2="536.5" stroke="cyan" stroke-width="1"/>
<line x1="903.5" y1="408.5" x2="1087" y2="463.5" stroke="cyan" stroke-width="1"/>
<line x1="938.5" y1="682.5" x2="1087" y2="463.5" stroke="cyan" stroke-width="1"/>
<line x1="1247" y1="581.5" x2="1218" y2="622" stroke="cyan" stroke-width="1"/>
<line x1="1247" y1="581.5" x2="1280.5" y2="415" stroke="cyan" stroke-width="1"/>
<line x1="1218" y1="622" x2="1378" y2="697" stroke="cyan" stroke-width="1"/>
<line x1="1419.5" y1="578" x2="1378" y2="697" stroke="cyan" stroke-width="1"/>
<line x1="1378" y1="697" x2="1519" y2="692" stroke="cyan" stroke-width="1"/>
<circle cx="47" cy="57.5" r="4" fill="red"><title>冰岛</title></circle>
<text x="53" y="61.5" fill="white" font-size="11" font-family="sans-serif">冰岛</text>
<circle cx="274" cy="111.5" r="4" fill="red"><title>不列颠</title></circle>
<text x="280" y="115.5" fill="white" font-size="11" font-family="sans-serif">不列颠</text>
<circle cx="66.5" cy="264.5" r="4" fill="yellow"><title>北海</title></circle>
<text x="72.5" y="268.5" fill="white" font-size="11" font-family="sans-serif">北海</text>
<circle cx="452" cy="115.5" r="4" fill="yellow"><title>波罗的海</title></circle>
<text x="458" y="119.5" fill="white" font-size="11" font-family="sans-serif">波罗的海</text>
<circle cx="477.5" cy="52.5" r="4" fill="red"><title>北欧</title></circle>
<text x="483.5" y="56.5" fill="white" font-size="11" font-family="sans-serif">北欧</text>
<circle cx="523" cy="180" r="4" fill="red"><title>德国</title></circle>
<text x="529" y="184" fill="white" font-size="11" font-family="sans-serif">德国</text>
<circle cx="271.5" cy="252" r="4" fill="red"><title>西欧</title></circle>
<text x="277.5" y="256" fill="white" font-size="11" font-family="sans-serif">西欧</text>
<circle cx="623.5" cy="90.5" r="4" fill="red"><title>东欧</title></circle>
<text x="629.5" y="94.5" fill="white" font-size="11" font-family="sans-serif">东欧</text>
<circle cx="516" cy="90" r="4" fill="red"><title>罗斯</title></circle>
<text x="522" y="94" fill="white" font-size="11" font-family="sans-serif">罗斯</text>
<circle cx="639" cy="145" r="4" fill="red"><title>莫斯科</title></circle>
<text x="645" y="149" fill="white" font-size="11" font-family="sans-serif">莫斯科</text>
<circle cx="814" cy="255.5" r="4" fill="red"><title>乌克兰</title></circle>
<text x="820" y="259.5" fill="white" font-size="11" font-family="sans-serif">乌克兰</text>
<circle cx="693.5" cy="291" r="4" fill="yellow"><title>黑海</title></circle>
<text x="699.5" y="295" fill="white" font-size="11" font-family="sans-serif">黑海</text>
<circle cx="485" cy="253.5" r="4" fill="yellow"><title>地中海</title></circle>
<text x="491" y="257.5" fill="white" font-size="11" font-family="sans-serif">地中海</text>
<circle cx="414.5" cy="293" r="4" fill="red"><title>意大利</title></circle>
<text x="420.5" y="297" fill="white" font-size="11" font-family="sans-serif">意大利</text>
<circle cx="575" cy="275" r="4" fill="red"><title>巴尔干</title></circle>
<text x="581" y="279" fill="white" font-size="11" font-family="sans-serif">巴尔干</text>
<circle cx="380" cy="367.5" r="4" fill="red"><title>非洲北部</title></circle>
<text x="386" y="371.5" fill="white" font-size="11" font-family="sans-serif">非洲北部</text>
<circle cx="640" cy="352.5" r="4" fill="red"><title>中东</title></circle>
<text x="646" y="356.5" fill="white" font-size="11" font-family="sans-serif">中东</text>
<circle cx="177" cy="169" r="4" fill="red"><title>亚速尔</title></circle>
<text x="183" y="173" fill="white" font-size="11" font-family="sans-serif">亚速尔</text>
<circle cx="993" cy="92" r="4" fill="red"><title>西伯利亚</title></circle>
<text x="999" y="96" fill="white" font-size="11" font-family="sans-serif">西伯利亚</text>
<circle cx="1054.5" cy="346" r="4" fill="red"><title>中亚</title></circle>
<text x="1060.5" y="350" fill="white" font-size="11" font-family="sans-serif">中亚</text>
<circle cx="1109.5" cy="248" r="4" fill="red"><title>蒙古</title></circle>
<text x="1115.5" y="252" fill="white" font-size="11" font-family="sans-serif">蒙古</text>
<circle cx="1255.5" cy="266" r="4" fill="red"><title>中国东北</title></circle>
<text x="1261.5" y="270" fill="white" font-size="11" font-family="sans-serif">中国东北</text>
<circle cx="1174.5" cy="393.5" r="4" fill="red"><title>中国西部</title></circle>
<text x="1180.5" y="397.5" fill="white" font-size="11" font-family="sans-serif">中国西部</text>
<circle cx="1294" cy="536.5" r="4" fill="red"><title>中国东部</title></circle>
<text x="1300" y="540.5" fill="white" font-size="11" font-family="sans-serif">中国东部</text>
<circle cx="1379" cy="67" r="4" fill="red"><title>海参崴</title></circle>
<text x="1385" y="71" fill="white" font-size="11" font-family="sans-serif">海参崴</text>
<circle cx="1375" cy="729" r="4" fill="red"><title>日本</title></circle>
<text x="1381" y="733" fill="white" font-size="11" font-family="sans-serif">日本</text>
<circle cx="1415.5" cy="547.5" r="4" fill="yellow"><title>东海</title></circle>
<text x="1421.5" y="551.5" fill="white" font-size="11" font-family="sans-serif">东海</text>
<circle cx="1741" cy="29" r="4" fill="red"><title>阿拉斯加</title></circle>
<text x="1747" y="33" fill="white" font-size="11" font-family="sans-serif">阿拉斯加</text>
<circle cx="2045" cy="84.5" r="4" fill="red"><title>加拿大</title></circle>
<text x="2051" y="88.5" fill="white" font-size="11" font-family="sans-serif">加拿大</text>
<circle cx="2007.5" cy="221" r="4" fill="red"><title>美国</title></circle>
<text x="2013.5" y="225" fill="white" font-size="11" font-family="sans-serif">美国</text>
<circle cx="1677" cy="143.5" r="4" fill="red"><title>夏威夷</title></circle>
<text x="1683" y="147.5" fill="white" font-size="11" font-family="sans-serif">夏威夷</text>
<circle cx="1547.5" cy="678.5" r="4" fill="red"><title>硫磺岛</title></circle>
<text x="1553.5" y="682.5" fill="white" font-size="11" font-family="sans-serif">硫磺岛</text>
<circle cx="1768" cy="431" r="4" fill="yellow"><title>北太平洋</title></circle>
<text x="1774" y="435" fill="white" font-size="11" font-family="sans-serif">北太平洋</text>
<circle cx="1529" cy="473" r="4" fill="yellow"><title>中太平洋</title></circle>
<text x="1535" y="477" fill="white" font-size="11" font-family="sans-serif">中太平洋</text>
<circle cx="2229.5" cy="537" r="4" fill="yellow"><title>东太平洋</title></circle>
<text x="2235.5" y="541" fill="white" font-size="11" font-family="sans-serif">东太平洋</text>
<circle cx="2035.5" cy="658" r="4" fill="yellow"><title>南太平洋</title></circle>
<text x="2041.5" y="662" fill="white" font-size="11" font-family="sans-serif">南太平洋</text>
<circle cx="2245" cy="244" r="4" fill="yellow"><title>北大西洋</title></circle>
<text x="2251" y="248" fill="white" font-size="11" font-family="sans-serif">北大西洋</text>
<circle cx="176.5" cy="624" r="4" fill="yellow"><title>南大西洋</title></circle>
<text x="182.5" y="628" fill="white" font-size="11" font-family="sans-serif">南大西洋</text>
<circle cx="2099.5" cy="527" r="4" fill="red"><title>拉丁美洲</title></circle>
<text x="2105.5" y="531" fill="white" font-size="11" font-family="sans-serif">拉丁美洲</text>
<circle cx="350" cy="500" r="4" fill="yellow"><title>加勒比海</title></circle>
<text x="356" y="504" fill="white" font-size="11" font-family="sans-serif">加勒比海</text>
<circle cx="341.5" cy="540.5" r="4" fill="red"><title>非洲南部</title></circle>
<text x="347.5" y="544.5" fill="white" font-size="11" font-family="sans-serif">非洲南部</text>
<circle cx="529" cy="530" r="4" fill="red"><title>非洲东部</title></circle>
<text x="535" y="534" fill="white" font-size="11" font-family="sans-serif">非洲东部</text>
<circle cx="583.5" cy="695" r="4" fill="red"><title>马达加斯加</title></circle>
<text x="589.5" y="699" fill="white" font-size="11" font-family="sans-serif">马达加斯加</text>
<circle cx="698.5" cy="536.5" r="4" fill="yellow"><title>阿拉伯海</title></circle>
<text x="704.5" y="540.5" fill="white" font-size="11" font-family="sans-serif">阿拉伯海</text>
<circle cx="903.5" cy="408.5" r="4" fill="red"><title>印度</title></circle>
<text x="909.5" y="412.5" fill="white" font-size="11" font-family="sans-serif">印度</text>
<circle cx="938.5" cy="682.5" r="4" fill="yellow"><title>印度洋</title></circle>
<text x="944.5" y="686.5" fill="white" font-size="11" font-family="sans-serif">印度洋</text>
<circle cx="1087" cy="463.5" r="4" fill="red"><title>东南亚</title></circle>
<text x="1093" y="467.5" fill="white" font-size="11" font-family="sans-serif">东南亚</text>
<circle cx="1247" cy="581.5" r="4" fill="yellow"><title>南海</title></circle>
<text x="1253" y="585.5" fill="white" font-size="11" font-family="sans-serif">南海</text>
<circle cx="1218" cy="622" r="4" fill="red"><title>印度尼西亚</title></circle>
<text x="1224" y="626" fill="white" font-size="11" font-family="sans-serif">印度尼西亚</text>
<circle cx="1280.5" cy="415" r="4" fill="red"><title>菲律宾</title></circle>
<text x="1286.5" y="419" fill="white" font-size="11" font-family="sans-serif">菲律宾</text>
<circle cx="1419.5" cy="578" r="4" fill="red"><title>新几内亚</title></circle>
<text x="1425.5" y="582" fill="white" font-size="11" font-family="sans-serif">新几内亚</text>
<circle cx="1378" cy="697" r="4" fill="red"><title>澳大利亚</title></circle>
<text x="1384" y="701" fill="white" font-size="11" font-family="sans-serif">澳大利亚</text>
<circle cx="1519" cy="692" r="4" fill="red"><title>新西兰</title></circle>
<text x="1525" y="696" fill="white" font-size="11" font-family="sans-serif">新西兰</text>
</svg>