<svg xmlns="http://www.w3.org/2000/svg" width="4835" height="1612" viewBox="0 0 4835 1612"><rect width="4835" height="1612" fill="#111"/><line x1="94" y1="115" x2="4401" y2="676" stroke="#b07cff" stroke-width="3" opacity="0.85"/><line x1="94" y1="115" x2="354" y2="338" stroke="#b07cff" stroke-width="3" opacity="0.85"/><line x1="548" y1="223" x2="354" y2="338" stroke="#b07cff" stroke-width="3" opacity="0.85"/><line x1="133" y1="529" x2="4401" y2="676" stroke="#b07cff" stroke-width="3" opacity="0.85"/><line x1="133" y1="529" x2="354" y2="338" stroke="#b07cff" stroke-width="3" opacity="0.85"/><line x1="133" y1="529" x2="353" y2="1248" stroke="#b07cff" stroke-width="3" opacity="0.85"/><line x1="955" y1="105" x2="354" y2="338" stroke="#b07cff" stroke-width="3" opacity="0.85"/><line x1="955" y1="105" x2="1032" y2="180" stroke="#b07cff" stroke-width="3" opacity="0.85"/><line x1="955" y1="105" x2="1247" y2="181" stroke="#ffd24a" stroke-width="3" opacity="0.85"/><line x1="1046" y1="360" x2="970" y2="507" stroke="#ffd24a" stroke-width="3" opacity="0.85"/><line x1="1046" y1="360" x2="1032" y2="180" stroke="#b07cff" stroke-width="3" opacity="0.85"/><line x1="1046" y1="360" x2="860" y2="374" stroke="#ffd24a" stroke-width="3" opacity="0.85"/><line x1="1046" y1="360" x2="1247" y2="181" stroke="#ffd24a" stroke-width="3" opacity="0.85"/><line x1="1046" y1="360" x2="1214" y2="444" stroke="#ffd24a" stroke-width="3" opacity="0.85"/><line x1="543" y1="504" x2="354" y2="338" stroke="#b07cff" stroke-width="3" opacity="0.85"/><line x1="543" y1="504" x2="1032" y2="180" stroke="#b07cff" stroke-width="3" opacity="0.85"/><line x1="543" y1="504" x2="860" y2="374" stroke="#ffd24a" stroke-width="3" opacity="0.85"/><line x1="543" y1="504" x2="1004" y2="662" stroke="#b07cff" stroke-width="3" opacity="0.85"/><line x1="543" y1="504" x2="760" y2="735" stroke="#ffd24a" stroke-width="3" opacity="0.85"/><line x1="543" y1="504" x2="829" y2="586" stroke="#ffd24a" stroke-width="3" opacity="0.85"/><line x1="1247" y1="181" x2="1032" y2="180" stroke="#b07cff" stroke-width="3" opacity="0.85"/><line x1="1247" y1="181" x2="1278" y2="290" stroke="#ffd24a" stroke-width="3" opacity="0.85"/><line x1="1247" y1="181" x2="1214" y2="444" stroke="#ffd24a" stroke-width="3" opacity="0.85"/><line x1="1247" y1="181" x2="1986" y2="184" stroke="#ffd24a" stroke-width="3" opacity="0.85"/><line x1="1032" y1="180" x2="354" y2="338" stroke="#ff44dd" stroke-width="3" opacity="0.85" stroke-dasharray="10 6"/><line x1="1032" y1="180" x2="860" y2="374" stroke="#b07cff" stroke-width="3" opacity="0.85"/><line x1="1278" y1="290" x2="1214" y2="444" stroke="#ffd24a" stroke-width="3" opacity="0.85"/><line x1="1278" y1="290" x2="1986" y2="184" stroke="#ffd24a" stroke-width="3" opacity="0.85"/><line x1="1278" y1="290" x2="1628" y2="511" stroke="#ffd24a" stroke-width="3" opacity="0.85"/><line x1="1628" y1="511" x2="2219" y2="496" stroke="#ffd24a" stroke-width="3" opacity="0.85"/><line x1="1628" y1="511" x2="1214" y2="444" stroke="#ffd24a" stroke-width="3" opacity="0.85"/><line x1="1628" y1="511" x2="1986" y2="184" stroke="#ffd24a" stroke-width="3" opacity="0.85"/><line x1="1628" y1="511" x2="1280" y2="705" stroke="#ffd24a" stroke-width="3" opacity="0.85"/><line x1="1628" y1="511" x2="2109" y2="692" stroke="#ffd24a" stroke-width="3" opacity="0.85"/><line x1="970" y1="507" x2="860" y2="374" stroke="#ffd24a" stroke-width="3" opacity="0.85"/><line x1="970" y1="507" x2="1004" y2="662" stroke="#b07cff" stroke-width="3" opacity="0.85"/><line x1="970" y1="507" x2="1150" y2="550" stroke="#b07cff" stroke-width="3" opacity="0.85"/><line x1="970" y1="507" x2="1214" y2="444" stroke="#ffd24a" stroke-width="3" opacity="0.85"/><line x1="970" y1="507" x2="829" y2="586" stroke="#ffd24a" stroke-width="3" opacity="0.85"/><line x1="829" y1="586" x2="860" y2="374" stroke="#ffd24a" stroke-width="3" opacity="0.85"/><line x1="829" y1="586" x2="1004" y2="662" stroke="#b07cff" stroke-width="3" opacity="0.85"/><line x1="1150" y1="550" x2="1214" y2="444" stroke="#b07cff" stroke-width="3" opacity="0.85"/><line x1="1150" y1="550" x2="1280" y2="705" stroke="#b07cff" stroke-width="3" opacity="0.85"/><line x1="760" y1="735" x2="354" y2="338" stroke="#b07cff" stroke-width="3" opacity="0.85"/><line x1="760" y1="735" x2="1004" y2="662" stroke="#b07cff" stroke-width="3" opacity="0.85"/><line x1="760" y1="735" x2="1058" y2="1060" stroke="#ffd24a" stroke-width="3" opacity="0.85"/><line x1="760" y1="735" x2="683" y2="1081" stroke="#ffd24a" stroke-width="3" opacity="0.85"/><line x1="760" y1="735" x2="353" y2="1248" stroke="#b07cff" stroke-width="3" opacity="0.85"/><line x1="760" y1="735" x2="1280" y2="705" stroke="#ffd24a" stroke-width="3" opacity="0.85"/><line x1="1280" y1="705" x2="1397" y2="1073" stroke="#b07cff" stroke-width="3" opacity="0.85"/><line x1="1280" y1="705" x2="1004" y2="662" stroke="#b07cff" stroke-width="3" opacity="0.85"/><line x1="1280" y1="705" x2="1214" y2="444" stroke="#ffd24a" stroke-width="3" opacity="0.85"/><line x1="1280" y1="705" x2="1807" y2="817" stroke="#ffd24a" stroke-width="3" opacity="0.85"/><line x1="1280" y1="705" x2="2109" y2="692" stroke="#ffd24a" stroke-width="3" opacity="0.85"/><line x1="354" y1="338" x2="4401" y2="676" stroke="#35e0ff" stroke-width="3" opacity="0.85"/><line x1="354" y1="338" x2="353" y2="1248" stroke="#35e0ff" stroke-width="3" opacity="0.85"/><line x1="1986" y1="184" x2="2758" y2="134" stroke="#ffd24a" stroke-width="3" opacity="0.85"/><line x1="1986" y1="184" x2="2219" y2="496" stroke="#ffd24a" stroke-width="3" opacity="0.85"/><line x1="2109" y1="692" x2="2174" y2="927" stroke="#ffd24a" stroke-width="3" opacity="0.85"/><line x1="2109" y1="692" x2="2219" y2="496" stroke="#ffd24a" stroke-width="3" opacity="0.85"/><line x1="2109" y1="692" x2="1807" y2="817" stroke="#ffd24a" stroke-width="3" opacity="0.85"/><line x1="2109" y1="692" x2="2511" y2="532" stroke="#ffd24a" stroke-width="3" opacity="0.85"/><line x1="2109" y1="692" x2="2349" y2="787" stroke="#ffd24a" stroke-width="3" opacity="0.85"/><line x1="2219" y1="496" x2="2758" y2="134" stroke="#ffd24a" stroke-width="3" opacity="0.85"/><line x1="2219" y1="496" x2="2511" y2="532" stroke="#ffd24a" stroke-width="3" opacity="0.85"/><line x1="2511" y1="532" x2="2561" y2="830" stroke="#b07cff" stroke-width="3" opacity="0.85"/><line x1="2511" y1="532" x2="2758" y2="134" stroke="#ffd24a" stroke-width="3" opacity="0.85"/><line x1="2511" y1="532" x2="2349" y2="787" stroke="#ffd24a" stroke-width="3" opacity="0.85"/><line x1="2349" y1="787" x2="2561" y2="830" stroke="#b07cff" stroke-width="3" opacity="0.85"/><line x1="2349" y1="787" x2="2174" y2="927" stroke="#ffd24a" stroke-width="3" opacity="0.85"/><line x1="2588" y1="1073" x2="2561" y2="830" stroke="#b07cff" stroke-width="3" opacity="0.85"/><line x1="2588" y1="1073" x2="2494" y2="1163" stroke="#b07cff" stroke-width="3" opacity="0.85"/><line x1="2588" y1="1073" x2="3058" y2="946" stroke="#b07cff" stroke-width="3" opacity="0.85"/><line x1="2758" y1="134" x2="3233" y2="438" stroke="#b07cff" stroke-width="3" opacity="0.85"/><line x1="2758" y1="134" x2="2561" y2="830" stroke="#b07cff" stroke-width="3" opacity="0.85"/><line x1="3482" y1="58" x2="3233" y2="438" stroke="#b07cff" stroke-width="3" opacity="0.85"/><line x1="3482" y1="58" x2="3728" y2="1034" stroke="#b07cff" stroke-width="3" opacity="0.85"/><line x1="3482" y1="58" x2="4090" y2="169" stroke="#ffd24a" stroke-width="3" opacity="0.85"/><line x1="4090" y1="169" x2="4401" y2="676" stroke="#b07cff" stroke-width="3" opacity="0.85"/><line x1="4090" y1="169" x2="3728" y2="1034" stroke="#b07cff" stroke-width="3" opacity="0.85"/><line x1="4090" y1="169" x2="4015" y2="442" stroke="#ffd24a" stroke-width="3" opacity="0.85"/><line x1="4015" y1="442" x2="4401" y2="676" stroke="#b07cff" stroke-width="3" opacity="0.85"/><line x1="4015" y1="442" x2="3728" y2="1034" stroke="#b07cff" stroke-width="3" opacity="0.85"/><line x1="4015" y1="442" x2="4199" y2="1054" stroke="#ffd24a" stroke-width="3" opacity="0.85"/><line x1="3058" y1="946" x2="3233" y2="438" stroke="#35e0ff" stroke-width="3" opacity="0.85"/><line x1="3058" y1="946" x2="2561" y2="830" stroke="#35e0ff" stroke-width="3" opacity="0.85"/><line x1="3058" y1="946" x2="3728" y2="1034" stroke="#35e0ff" stroke-width="3" opacity="0.85"/><line x1="3058" y1="946" x2="2929" y2="766" stroke="#b07cff" stroke-width="3" opacity="0.85"/><line x1="3058" y1="946" x2="2494" y2="1163" stroke="#35e0ff" stroke-width="3" opacity="0.85"/><line x1="3058" y1="946" x2="3038" y2="1384" stroke="#35e0ff" stroke-width="3" opacity="0.85"/><line x1="3058" y1="946" x2="3462" y2="770" stroke="#b07cff" stroke-width="3" opacity="0.85"/><line x1="3058" y1="946" x2="2839" y2="1156" stroke="#b07cff" stroke-width="3" opacity="0.85"/><line x1="353" y1="1248" x2="1397" y2="1073" stroke="#35e0ff" stroke-width="3" opacity="0.85"/><line x1="353" y1="1248" x2="4401" y2="676" stroke="#35e0ff" stroke-width="3" opacity="0.85"/><line x1="353" y1="1248" x2="1004" y2="662" stroke="#35e0ff" stroke-width="3" opacity="0.85"/><line x1="353" y1="1248" x2="3728" y2="1034" stroke="#35e0ff" stroke-width="3" opacity="0.85"/><line x1="353" y1="1248" x2="683" y2="1081" stroke="#b07cff" stroke-width="3" opacity="0.85"/><line x1="353" y1="1248" x2="4199" y2="1054" stroke="#b07cff" stroke-width="3" opacity="0.85"/><line x1="353" y1="1248" x2="1167" y2="1390" stroke="#b07cff" stroke-width="3" opacity="0.85"/><line x1="353" y1="1248" x2="1877" y2="1365" stroke="#35e0ff" stroke-width="3" opacity="0.85"/><line x1="4199" y1="1054" x2="4401" y2="676" stroke="#b07cff" stroke-width="3" opacity="0.85"/><line x1="4199" y1="1054" x2="3728" y2="1034" stroke="#b07cff" stroke-width="3" opacity="0.85"/><line x1="683" y1="1081" x2="1058" y2="1060" stroke="#ffd24a" stroke-width="3" opacity="0.85"/><line x1="1058" y1="1060" x2="1397" y2="1073" stroke="#b07cff" stroke-width="3" opacity="0.85"/><line x1="1167" y1="1390" x2="1397" y2="1073" stroke="#b07cff" stroke-width="3" opacity="0.85"/><line x1="1167" y1="1390" x2="1877" y2="1365" stroke="#b07cff" stroke-width="3" opacity="0.85"/><line x1="1397" y1="1073" x2="1807" y2="817" stroke="#b07cff" stroke-width="3" opacity="0.85"/><line x1="1397" y1="1073" x2="1877" y2="1365" stroke="#35e0ff" stroke-width="3" opacity="0.85"/><line x1="1807" y1="817" x2="2174" y2="927" stroke="#ffd24a" stroke-width="3" opacity="0.85"/><line x1="1807" y1="817" x2="1877" y2="1365" stroke="#b07cff" stroke-width="3" opacity="0.85"/><line x1="1877" y1="1365" x2="2756" y2="1394" stroke="#b07cff" stroke-width="3" opacity="0.85"/><line x1="1877" y1="1365" x2="2174" y2="927" stroke="#b07cff" stroke-width="3" opacity="0.85"/><line x1="1877" y1="1365" x2="2494" y2="1163" stroke="#35e0ff" stroke-width="3" opacity="0.85"/><line x1="1877" y1="1365" x2="3038" y2="1384" stroke="#35e0ff" stroke-width="3" opacity="0.85"/><line x1="1877" y1="1365" x2="2436" y2="1244" stroke="#b07cff" stroke-width="3" opacity="0.85"/><line x1="2174" y1="927" x2="2494" y2="1163" stroke="#b07cff" stroke-width="3" opacity="0.85"/><line x1="2494" y1="1163" x2="2756" y2="1394" stroke="#b07cff" stroke-width="3" opacity="0.85"/><line x1="2494" y1="1163" x2="2561" y2="830" stroke="#35e0ff" stroke-width="3" opacity="0.85"/><line x1="2494" y1="1163" x2="3038" y2="1384" stroke="#35e0ff" stroke-width="3" opacity="0.85"/><line x1="2494" y1="1163" x2="2839" y2="1156" stroke="#b07cff" stroke-width="3" opacity="0.85"/><line x1="2494" y1="1163" x2="2436" y2="1244" stroke="#b07cff" stroke-width="3" opacity="0.85"/><line x1="2561" y1="830" x2="3233" y2="438" stroke="#35e0ff" stroke-width="3" opacity="0.85"/><line x1="2561" y1="830" x2="2929" y2="766" stroke="#b07cff" stroke-width="3" opacity="0.85"/><line x1="2561" y1="830" x2="3038" y2="1384" stroke="#35e0ff" stroke-width="3" opacity="0.85"/><line x1="2561" y1="830" x2="2732" y2="694" stroke="#b07cff" stroke-width="3" opacity="0.85"/><line x1="2839" y1="1156" x2="3038" y2="1384" stroke="#b07cff" stroke-width="3" opacity="0.85"/><line x1="2756" y1="1394" x2="3038" y2="1384" stroke="#b07cff" stroke-width="3" opacity="0.85"/><line x1="3038" y1="1384" x2="3728" y2="1034" stroke="#35e0ff" stroke-width="3" opacity="0.85"/><line x1="3038" y1="1384" x2="3232" y2="1486" stroke="#b07cff" stroke-width="3" opacity="0.85"/><line x1="2929" y1="766" x2="3233" y2="438" stroke="#b07cff" stroke-width="3" opacity="0.85"/><line x1="3233" y1="438" x2="3728" y2="1034" stroke="#35e0ff" stroke-width="3" opacity="0.85"/><line x1="3233" y1="438" x2="3462" y2="770" stroke="#b07cff" stroke-width="3" opacity="0.85"/><line x1="3462" y1="770" x2="3728" y2="1034" stroke="#b07cff" stroke-width="3" opacity="0.85"/><line x1="3232" y1="1486" x2="3728" y2="1034" stroke="#b07cff" stroke-width="3" opacity="0.85"/><circle cx="94" cy="115" r="7" fill="#ff3b30" stroke="#000" stroke-width="2"/><text x="106" y="120" font-family="Microsoft YaHei" font-size="20" font-weight="bold" fill="#fff" stroke="#000" stroke-width="4" paint-order="stroke">冰岛</text><circle cx="548" cy="223" r="7" fill="#ff3b30" stroke="#000" stroke-width="2"/><text x="560" y="228" font-family="Microsoft YaHei" font-size="20" font-weight="bold" fill="#fff" stroke="#000" stroke-width="4" paint-order="stroke">⌂★不列颠</text><circle cx="133" cy="529" r="7" fill="#ff3b30" stroke="#000" stroke-width="2"/><text x="145" y="534" font-family="Microsoft YaHei" font-size="20" font-weight="bold" fill="#fff" stroke="#000" stroke-width="4" paint-order="stroke">亚速尔</text><circle cx="955" cy="105" r="7" fill="#ff3b30" stroke="#000" stroke-width="2"/><text x="967" y="110" font-family="Microsoft YaHei" font-size="20" font-weight="bold" fill="#fff" stroke="#000" stroke-width="4" paint-order="stroke">🚧北欧</text><circle cx="1046" cy="360" r="7" fill="#ff3b30" stroke="#000" stroke-width="2"/><text x="1058" y="365" font-family="Microsoft YaHei" font-size="20" font-weight="bold" fill="#fff" stroke="#000" stroke-width="4" paint-order="stroke">东欧</text><circle cx="543" cy="504" r="7" fill="#ff3b30" stroke="#000" stroke-width="2"/><text x="555" y="509" font-family="Microsoft YaHei" font-size="20" font-weight="bold" fill="#fff" stroke="#000" stroke-width="4" paint-order="stroke">⌂★西欧</text><circle cx="1247" cy="181" r="7" fill="#ff3b30" stroke="#000" stroke-width="2"/><text x="1259" y="186" font-family="Microsoft YaHei" font-size="20" font-weight="bold" fill="#fff" stroke="#000" stroke-width="4" paint-order="stroke">罗斯</text><circle cx="1032" cy="180" r="7" fill="#00d4ff" stroke="#000" stroke-width="2"/><text x="1044" y="185" font-family="Microsoft YaHei" font-size="20" font-weight="bold" fill="#fff" stroke="#000" stroke-width="4" paint-order="stroke">波罗的海</text><circle cx="1278" cy="290" r="7" fill="#ff3b30" stroke="#000" stroke-width="2"/><text x="1290" y="295" font-family="Microsoft YaHei" font-size="20" font-weight="bold" fill="#fff" stroke="#000" stroke-width="4" paint-order="stroke">⌂★莫斯科</text><circle cx="1628" cy="511" r="7" fill="#ff3b30" stroke="#000" stroke-width="2"/><text x="1640" y="516" font-family="Microsoft YaHei" font-size="20" font-weight="bold" fill="#fff" stroke="#000" stroke-width="4" paint-order="stroke">中亚</text><circle cx="1387" cy="582" r="10" fill="#00d4ff" stroke="#000" stroke-width="2"/><text x="1399" y="587" font-family="Microsoft YaHei" font-size="20" font-weight="bold" fill="#fff" stroke="#000" stroke-width="4" paint-order="stroke">[里海]</text><circle cx="970" cy="507" r="7" fill="#ff3b30" stroke="#000" stroke-width="2"/><text x="982" y="512" font-family="Microsoft YaHei" font-size="20" font-weight="bold" fill="#fff" stroke="#000" stroke-width="4" paint-order="stroke">巴尔干</text><circle cx="829" cy="586" r="7" fill="#ff3b30" stroke="#000" stroke-width="2"/><text x="841" y="591" font-family="Microsoft YaHei" font-size="20" font-weight="bold" fill="#fff" stroke="#000" stroke-width="4" paint-order="stroke">⌂★意大利</text><circle cx="1150" cy="550" r="7" fill="#00d4ff" stroke="#000" stroke-width="2"/><text x="1162" y="555" font-family="Microsoft YaHei" font-size="20" font-weight="bold" fill="#fff" stroke="#000" stroke-width="4" paint-order="stroke">黑海</text><circle cx="760" cy="735" r="7" fill="#ff3b30" stroke="#000" stroke-width="2"/><text x="772" y="740" font-family="Microsoft YaHei" font-size="20" font-weight="bold" fill="#fff" stroke="#000" stroke-width="4" paint-order="stroke">🚧非洲北部</text><circle cx="1280" cy="705" r="7" fill="#ff3b30" stroke="#000" stroke-width="2"/><text x="1292" y="710" font-family="Microsoft YaHei" font-size="20" font-weight="bold" fill="#fff" stroke="#000" stroke-width="4" paint-order="stroke">🚧中东</text><circle cx="354" cy="338" r="7" fill="#00d4ff" stroke="#000" stroke-width="2"/><text x="366" y="343" font-family="Microsoft YaHei" font-size="20" font-weight="bold" fill="#fff" stroke="#000" stroke-width="4" paint-order="stroke">北海</text><circle cx="1986" cy="184" r="7" fill="#ff3b30" stroke="#000" stroke-width="2"/><text x="1998" y="189" font-family="Microsoft YaHei" font-size="20" font-weight="bold" fill="#fff" stroke="#000" stroke-width="4" paint-order="stroke">西伯利亚</text><circle cx="2109" cy="692" r="7" fill="#ff3b30" stroke="#000" stroke-width="2"/><text x="2121" y="697" font-family="Microsoft YaHei" font-size="20" font-weight="bold" fill="#fff" stroke="#000" stroke-width="4" paint-order="stroke">中国西部</text><circle cx="2219" cy="496" r="7" fill="#ff3b30" stroke="#000" stroke-width="2"/><text x="2231" y="501" font-family="Microsoft YaHei" font-size="20" font-weight="bold" fill="#fff" stroke="#000" stroke-width="4" paint-order="stroke">蒙古</text><circle cx="2511" cy="532" r="7" fill="#ff3b30" stroke="#000" stroke-width="2"/><text x="2523" y="537" font-family="Microsoft YaHei" font-size="20" font-weight="bold" fill="#fff" stroke="#000" stroke-width="4" paint-order="stroke">中国东北</text><circle cx="2349" cy="787" r="7" fill="#ff3b30" stroke="#000" stroke-width="2"/><text x="2361" y="792" font-family="Microsoft YaHei" font-size="20" font-weight="bold" fill="#fff" stroke="#000" stroke-width="4" paint-order="stroke">⌂★中国东部</text><circle cx="2588" cy="1073" r="7" fill="#ff3b30" stroke="#000" stroke-width="2"/><text x="2600" y="1078" font-family="Microsoft YaHei" font-size="20" font-weight="bold" fill="#fff" stroke="#000" stroke-width="4" paint-order="stroke">菲律宾</text><circle cx="2758" cy="134" r="7" fill="#ff3b30" stroke="#000" stroke-width="2"/><text x="2770" y="139" font-family="Microsoft YaHei" font-size="20" font-weight="bold" fill="#fff" stroke="#000" stroke-width="4" paint-order="stroke">海参崴</text><circle cx="3482" cy="58" r="7" fill="#ff3b30" stroke="#000" stroke-width="2"/><text x="3494" y="63" font-family="Microsoft YaHei" font-size="20" font-weight="bold" fill="#fff" stroke="#000" stroke-width="4" paint-order="stroke">阿拉斯加</text><circle cx="4090" cy="169" r="7" fill="#ff3b30" stroke="#000" stroke-width="2"/><text x="4102" y="174" font-family="Microsoft YaHei" font-size="20" font-weight="bold" fill="#fff" stroke="#000" stroke-width="4" paint-order="stroke">加拿大</text><circle cx="4015" cy="442" r="7" fill="#ff3b30" stroke="#000" stroke-width="2"/><text x="4027" y="447" font-family="Microsoft YaHei" font-size="20" font-weight="bold" fill="#fff" stroke="#000" stroke-width="4" paint-order="stroke">⌂★美国</text><circle cx="3058" cy="946" r="7" fill="#00d4ff" stroke="#000" stroke-width="2"/><text x="3070" y="951" font-family="Microsoft YaHei" font-size="20" font-weight="bold" fill="#fff" stroke="#000" stroke-width="4" paint-order="stroke">中太平洋</text><circle cx="353" cy="1248" r="7" fill="#00d4ff" stroke="#000" stroke-width="2"/><text x="365" y="1253" font-family="Microsoft YaHei" font-size="20" font-weight="bold" fill="#fff" stroke="#000" stroke-width="4" paint-order="stroke">南大西洋</text><circle cx="4199" cy="1054" r="7" fill="#ff3b30" stroke="#000" stroke-width="2"/><text x="4211" y="1059" font-family="Microsoft YaHei" font-size="20" font-weight="bold" fill="#fff" stroke="#000" stroke-width="4" paint-order="stroke">🚧拉丁美洲</text><circle cx="683" cy="1081" r="7" fill="#ff3b30" stroke="#000" stroke-width="2"/><text x="695" y="1086" font-family="Microsoft YaHei" font-size="20" font-weight="bold" fill="#fff" stroke="#000" stroke-width="4" paint-order="stroke">非洲南部</text><circle cx="1058" cy="1060" r="7" fill="#ff3b30" stroke="#000" stroke-width="2"/><text x="1070" y="1065" font-family="Microsoft YaHei" font-size="20" font-weight="bold" fill="#fff" stroke="#000" stroke-width="4" paint-order="stroke">非洲东部</text><circle cx="1167" cy="1390" r="7" fill="#ff3b30" stroke="#000" stroke-width="2"/><text x="1179" y="1395" font-family="Microsoft YaHei" font-size="20" font-weight="bold" fill="#fff" stroke="#000" stroke-width="4" paint-order="stroke">马达加斯加</text><circle cx="1397" cy="1073" r="7" fill="#00d4ff" stroke="#000" stroke-width="2"/><text x="1409" y="1078" font-family="Microsoft YaHei" font-size="20" font-weight="bold" fill="#fff" stroke="#000" stroke-width="4" paint-order="stroke">阿拉伯海</text><circle cx="1807" cy="817" r="7" fill="#ff3b30" stroke="#000" stroke-width="2"/><text x="1819" y="822" font-family="Microsoft YaHei" font-size="20" font-weight="bold" fill="#fff" stroke="#000" stroke-width="4" paint-order="stroke">★印度</text><circle cx="1877" cy="1365" r="7" fill="#00d4ff" stroke="#000" stroke-width="2"/><text x="1889" y="1370" font-family="Microsoft YaHei" font-size="20" font-weight="bold" fill="#fff" stroke="#000" stroke-width="4" paint-order="stroke">印度洋</text><circle cx="2174" cy="927" r="7" fill="#ff3b30" stroke="#000" stroke-width="2"/><text x="2186" y="932" font-family="Microsoft YaHei" font-size="20" font-weight="bold" fill="#fff" stroke="#000" stroke-width="4" paint-order="stroke">东南亚</text><circle cx="2494" cy="1163" r="7" fill="#00d4ff" stroke="#000" stroke-width="2"/><text x="2506" y="1168" font-family="Microsoft YaHei" font-size="20" font-weight="bold" fill="#fff" stroke="#000" stroke-width="4" paint-order="stroke">南海</text><circle cx="2436" cy="1244" r="7" fill="#ff3b30" stroke="#000" stroke-width="2"/><text x="2448" y="1249" font-family="Microsoft YaHei" font-size="20" font-weight="bold" fill="#fff" stroke="#000" stroke-width="4" paint-order="stroke">印度尼西亚</text><circle cx="2561" cy="830" r="7" fill="#00d4ff" stroke="#000" stroke-width="2"/><text x="2573" y="835" font-family="Microsoft YaHei" font-size="20" font-weight="bold" fill="#fff" stroke="#000" stroke-width="4" paint-order="stroke">东海</text><circle cx="2839" cy="1156" r="7" fill="#ff3b30" stroke="#000" stroke-width="2"/><text x="2851" y="1161" font-family="Microsoft YaHei" font-size="20" font-weight="bold" fill="#fff" stroke="#000" stroke-width="4" paint-order="stroke">新几内亚</text><circle cx="2756" cy="1394" r="7" fill="#ff3b30" stroke="#000" stroke-width="2"/><text x="2768" y="1399" font-family="Microsoft YaHei" font-size="20" font-weight="bold" fill="#fff" stroke="#000" stroke-width="4" paint-order="stroke">★澳大利亚</text><circle cx="3038" cy="1384" r="7" fill="#00d4ff" stroke="#000" stroke-width="2"/><text x="3050" y="1389" font-family="Microsoft YaHei" font-size="20" font-weight="bold" fill="#fff" stroke="#000" stroke-width="4" paint-order="stroke">南太平洋</text><circle cx="860" cy="374" r="7" fill="#ff3b30" stroke="#000" stroke-width="2"/><text x="872" y="379" font-family="Microsoft YaHei" font-size="20" font-weight="bold" fill="#fff" stroke="#000" stroke-width="4" paint-order="stroke">⌂★德国</text><circle cx="1214" cy="444" r="7" fill="#ff3b30" stroke="#000" stroke-width="2"/><text x="1226" y="449" font-family="Microsoft YaHei" font-size="20" font-weight="bold" fill="#fff" stroke="#000" stroke-width="4" paint-order="stroke">★乌克兰</text><circle cx="1004" cy="662" r="7" fill="#00d4ff" stroke="#000" stroke-width="2"/><text x="1016" y="667" font-family="Microsoft YaHei" font-size="20" font-weight="bold" fill="#fff" stroke="#000" stroke-width="4" paint-order="stroke">地中海</text><circle cx="2732" cy="694" r="7" fill="#ff3b30" stroke="#000" stroke-width="2"/><text x="2744" y="699" font-family="Microsoft YaHei" font-size="20" font-weight="bold" fill="#fff" stroke="#000" stroke-width="4" paint-order="stroke">⌂★日本</text><circle cx="2929" cy="766" r="7" fill="#ff3b30" stroke="#000" stroke-width="2"/><text x="2941" y="771" font-family="Microsoft YaHei" font-size="20" font-weight="bold" fill="#fff" stroke="#000" stroke-width="4" paint-order="stroke">硫磺岛</text><circle cx="3233" cy="438" r="7" fill="#00d4ff" stroke="#000" stroke-width="2"/><text x="3245" y="443" font-family="Microsoft YaHei" font-size="20" font-weight="bold" fill="#fff" stroke="#000" stroke-width="4" paint-order="stroke">北太平洋</text><circle cx="3462" cy="770" r="7" fill="#ff3b30" stroke="#000" stroke-width="2"/><text x="3474" y="775" font-family="Microsoft YaHei" font-size="20" font-weight="bold" fill="#fff" stroke="#000" stroke-width="4" paint-order="stroke">★夏威夷</text><circle cx="3232" cy="1486" r="7" fill="#ff3b30" stroke="#000" stroke-width="2"/><text x="3244" y="1491" font-family="Microsoft YaHei" font-size="20" font-weight="bold" fill="#fff" stroke="#000" stroke-width="4" paint-order="stroke">新西兰</text><circle cx="3728" cy="1034" r="7" fill="#00d4ff" stroke="#000" stroke-width="2"/><text x="3740" y="1039" font-family="Microsoft YaHei" font-size="20" font-weight="bold" fill="#fff" stroke="#000" stroke-width="4" paint-order="stroke">东太平洋</text><circle cx="4401" cy="676" r="7" fill="#00d4ff" stroke="#000" stroke-width="2"/><text x="4413" y="681" font-family="Microsoft YaHei" font-size="20" font-weight="bold" fill="#fff" stroke="#000" stroke-width="4" paint-order="stroke">北大西洋</text></svg>